<svg version="1.1" xmlns="http://www.w3.org/2000/svg" viewBox="0 0 984 218">
  <!-- svg-source:excalidraw -->
  <defs>
    <style>
      @font-face {
        font-family: "Virgil";
        src: url("https://excalidraw.com/FG_Virgil.woff2");
      }
      @font-face {
        font-family: "Cascadia";
        src: url("https://excalidraw.com/Cascadia.woff2");
      }
    </style>
  </defs>
  <rect x="0" y="0" width="984" height="218" fill="#ffffff"></rect><g transform="translate(10 36) rotate(0 105 77)"><path d="M0.3524794727563858 -1.4633705765008926 L211.63890172541142 -0.5748126655817032 L211.2178197056055 155.37500928342342 L1.0731201320886612 154.5818960517645" style="stroke: none; stroke-width: 0px; fill: rgb(253, 126, 20);"></path><path d="M-0.569106683930546 -0.5321400113881528 C66.5287427258476 2.0346797305988478, 133.94509500559033 1.6746771234316036, 208.8133715488108 0.8855206466023027 M0.7099041674431115 0.8111026464370935 C62.589636201606595 -0.46521846367961306, 126.17991774634442 -0.7307080718315258, 209.18339857204563 0.2460272150477618 M208.65331338346004 -1.9096670001745224 C209.17772077068688 59.45598300546408, 211.534281000942 121.36364045739174, 208.41879485547543 155.64646865427494 M209.48399282246828 -0.18246663361787796 C208.81603775963188 51.17292782962323, 207.83308158859612 102.3963566556573, 210.07394266873598 153.28656255453825 M210.64876396458135 155.52102230588974 C154.99053517123733 153.6977151139753, 96.76195007402977 154.9221803832119, 0.9188342585409581 154.48762203059164 M209.5252955610369 154.26627881218474 C150.66079326479894 153.22998756929897, 91.09370714417442 153.82177759569907, -0.6962930879189222 154.79626506570142 M1.0225255340337753 152.33005334436893 C-2.315542236417532 100.66285504847764, 0.16079948797821997 48.13629701137542, 0.8036014884710312 -1.3525500148534775 M-0.2495558187365532 153.69107376784086 C-0.15160215780138975 115.4496843934059, -0.32359946653246885 76.01920047551393, 0.6951456144452095 -0.6260451152920723" style="stroke: rgb(0, 0, 0); stroke-width: 1px; fill: none;"></path></g><g transform="translate(68 92.5) rotate(0 45 17.5)"><text x="0" y="25" font-family="Virgil" font-size="28px" fill="#fff" text-anchor="start">Source</text></g><g transform="translate(754 38) rotate(0 110 74.5)"><path d="M1.2893440574407578 1.926996722817421 L218.05880711972713 0.6784763485193253 L218.73181937634945 148.6531157642603 L-0.4489433914422989 150.05355168879032" style="stroke: none; stroke-width: 0px; fill: rgb(134, 142, 150);"></path><path d="M0.9300066850330532 0.5042932305090726 C60.28744658204196 0.4016981603569718, 119.89710490211604 -1.551774305319336, 221.62109688386556 1.489385074691087 M0.7503263091722876 0.46597405549393595 C82.62129318281283 -0.5757297506762804, 164.1413454555165 0.44745854872834073, 220.14350114592088 0.7729187471648306 M221.25489284098148 -1.0676729828119278 C217.95076017595827 58.67633324190975, 221.04209881044923 115.05093944221737, 220.23154546320438 149.93105433881283 M219.5319186374545 -0.7554514333605766 C219.50329057626425 36.62192206308246, 219.00503413133322 73.96878561079502, 219.86161219328642 148.88218212872744 M219.00982897196505 149.2732817246745 C137.45398411699603 149.98163764506253, 52.93177925345156 150.40774345007713, -1.2388995953767599 147.56618356842927 M220.14787885895885 149.6298328029028 C135.18712249696745 150.63351689348426, 52.12794864048444 150.70029049943793, -0.38109752032648025 148.2997843204709 M1.7777857929468155 148.49801133573055 C0.4487231864780188 97.51525603607297, 1.7322920455783606 43.298842899501324, -0.8251209110021591 -1.4114949852228165 M0.7982965633273125 149.57340837270021 C1.809199695661664 92.05427829399704, 0.6447597790509463 33.819579672813404, -0.5424352958798409 0.10583258420228958" style="stroke: rgb(0, 0, 0); stroke-width: 1px; fill: none;"></path></g><g transform="translate(815.5 95) rotate(0 47.5 17.5)"><text x="0" y="25" font-family="Virgil" font-size="28px" fill="#ffffff" text-anchor="start">Target</text></g><g transform="translate(386 10) rotate(0 99 99)"><path d="M100.54254581034184 1.2288110107183456 L197.9362983852625 101.05935500562191 L100.1254763752222 198.8701083511114 L1.0002164989709854 101.45062182843685" style="stroke: none; stroke-width: 0px; fill: rgb(34, 139, 230);"></path><path d="M100.55225394666195 1.850259318947792 C130.36666500866414 26.637225690931086, 156.17527785748246 57.329764980524786, 196.95449994504452 100.66684724390507 M100.08352232724428 -0.2937415912747383 C137.86944385915996 37.489825610369444, 173.18616167306902 74.75454216107727, 198.1550166681409 100.80958782881498 M197.40506528317928 101.90628434717655 C170.12792234674095 126.25993109211325, 145.82113363847134 150.82252576962114, 100.62834094464779 196.6457390934229 M197.51039195805788 100.13020741194487 C166.13080482199788 131.59665839239955, 135.46880249843002 163.99959318056705, 100.15147400647402 197.80176650732756 M98.39006350934505 196.75565959513187 C77.85960351601243 179.1186446160078, 59.74337247684598 158.94750382453202, -1.958697572350502 99.70948506891727 M99.80341912060976 198.8443709537387 C68.53216309860349 165.18650797456502, 34.74943068638444 133.95329817533494, 0.8395283296704292 100.87200152128935 M-0.7881615310907364 98.65473271906376 C33.16517562419176 67.41573493927717, 67.8860872015357 31.761664487421513, 100.75734923779964 -1.9949421733617783 M-0.4170348569750786 99.31041895598173 C20.743107959628105 79.61192591488361, 41.32087954878807 58.27191296219826, 99.53485346585512 0.9116502925753593" style="stroke: rgb(0, 0, 0); stroke-width: 1px; fill: none;"></path></g><g transform="translate(444.5 91.5) rotate(0 40.5 17.5)"><text x="0" y="25" font-family="Virgil" font-size="28px" fill="#ffffff" text-anchor="start">RIOT</text></g><g><g transform="translate(229 110) rotate(0 72.8891924053058 0.6521699214354157)"><path d="M0.22884322106838217 -0.7088758081197739 C24.704874111215272 -0.4884441941976547, 121.73476394911607 1.4572544485330583, 146.05586625039578 1.919772854447365 M-0.27748143978416917 1.2934201783686876 C23.524617095912493 1.615170125439763, 119.83706830037136 1.7505938930064437, 143.74543003492056 2.013215650990605" style="stroke: rgb(0, 0, 0); stroke-width: 1px; fill: none;"></path></g><g transform="translate(229 110) rotate(0 72.8891924053058 0.6521699214354157)"><path d="M114.31551753788675 13.873730997857855 C120.23688655751276 11.629274730121628, 127.07154401859475 8.366438653947817, 143.83583000056444 1.7099572468549011 M114.49844659923995 12.04245157849531 C126.54809266545342 7.870633151796698, 137.20989649106633 5.604467373248256, 143.18595509730278 1.5985019031912087" style="stroke: rgb(0, 0, 0); stroke-width: 1px; fill: none;"></path></g><g transform="translate(229 110) rotate(0 72.8891924053058 0.6521699214354157)"><path d="M114.43177064361413 -6.6471483108181815 C120.42813972797137 -4.1037233768488, 127.2356745556553 -2.5788999491101166, 143.83583000056444 1.7099572468549011 M114.61469970496734 -8.478427730180726 C126.48057082325963 -5.044220194812891, 137.09928209897149 0.2962668561655253, 143.18595509730278 1.5985019031912087" style="stroke: rgb(0, 0, 0); stroke-width: 1px; fill: none;"></path></g></g><g><g transform="translate(598 110) rotate(0 71.00796412527563 0.6886119561642374)"><path d="M-0.847702369093895 0.5589414685964584 C23.00064875980218 0.6829510778188705, 118.96245051125685 0.6819622129201888, 142.8636306196451 0.5136408895254134 M-0.7401366405934096 1.7842219155281782 C22.72440541056295 1.4902399509400128, 117.98616376268366 -0.29567816324532026, 142.0560844606906 -0.4069980031996965" style="stroke: rgb(0, 0, 0); stroke-width: 1px; fill: none;"></path></g><g transform="translate(598 110) rotate(0 71.00796412527563 0.6886119561642374)"><path d="M114.92848050780776 9.980935510517158 C122.76155302755959 6.687839868629096, 129.04203154613134 5.824687567044556, 143.53902848728 -1.215890506580472 M114.36816141940835 10.818219382585086 C124.59099973874574 6.74179540555501, 135.38297842341572 2.5775839115544965, 141.4563612333685 0.35309593163430697" style="stroke: rgb(0, 0, 0); stroke-width: 1px; fill: none;"></path></g><g transform="translate(598 110) rotate(0 71.00796412527563 0.6886119561642374)"><path d="M114.66975076878191 -10.538642002384593 C122.53615874484319 -8.061302924572253, 128.8893731754435 -3.1558482215624526, 143.53902848728 -1.215890506580472 M114.1094316803825 -9.701358130316665 C124.32927452050522 -5.620706113333391, 135.22409787937306 -1.6284170367476127, 141.4563612333685 0.35309593163430697" style="stroke: rgb(0, 0, 0); stroke-width: 1px; fill: none;"></path></g></g><g transform="translate(241 63.5) rotate(0 54 17.5)"><text x="0" y="25" font-family="Virgil" font-size="28px" fill="#000000" text-anchor="start">Records</text></g><g transform="translate(597 64.5) rotate(0 54 17.5)"><text x="0" y="25" font-family="Virgil" font-size="28px" fill="#000000" text-anchor="start">Records</text></g></svg>