<svg version="1.1" xmlns="http://www.w3.org/2000/svg" viewBox="0 0 1070 326.5">
  <!-- svg-source:excalidraw -->
  <defs>
    <style>
      @font-face {
        font-family: "Virgil";
        src: url("https://excalidraw.com/FG_Virgil.woff2");
      }
      @font-face {
        font-family: "Cascadia";
        src: url("https://excalidraw.com/Cascadia.woff2");
      }
    </style>
  </defs>
  <rect x="0" y="0" width="1070" height="326.5" fill="#ffffff"></rect><g transform="translate(407.5 142.5) rotate(0 40.5 17.5)"><text x="0" y="25" font-family="Virgil" font-size="28px" fill="#ffffff" text-anchor="start">RIOT</text></g><g transform="translate(414 135) rotate(0 40.5 17.5)"><text x="0" y="25" font-family="Virgil" font-size="28px" fill="#ffffff" text-anchor="start">RIOT</text></g><g transform="translate(301 10) rotate(0 102.5 102.5)"><path d="M103.46043857932091 1.8306623995304108 L204.90468773245811 102.18153348565102 L102.8028858602047 206.10335794091225 L0.1911657750606537 102.7631279528141" style="stroke: none; stroke-width: 0px; fill: rgb(34, 139, 230);"></path><path d="M102.40220227837563 -0.2938205301761627 C141.570731446594 37.93950493693352, 176.56815280959012 73.73587500959636, 203.7197691500187 104.97664055228233 M102.12203781306744 -0.11272542178630829 C125.90888980224729 24.6607281523943, 148.57676542297006 45.847812474071986, 204.468038007617 102.66266568005085 M203.03491654992104 102.45678123831749 C168.2492902544141 138.54290775030853, 134.17130620449782 176.22787117034198, 102.14023366570473 203.21927723288536 M205.89060346782207 103.31999523937702 C180.8494433167577 126.81718967407943, 156.15473883479834 150.35598747879268, 102.74482814967632 205.5996130257845 M103.92193379998207 203.66645893454552 C73.49160588860512 175.81206916823984, 42.78698224157095 144.52127221778036, -1.5668347775936127 102.31845077872276 M103.2876328676939 205.32615645229816 C67.17990907847881 169.86378585740923, 31.643033897578718 134.17818505510687, 0.5519375056028366 103.57533295452595 M-1.795144408941269 101.58423599600792 C29.08310599192977 72.3472338141501, 59.36838879004121 44.37107882365585, 101.14641538262367 1.6169346272945404 M0.015762731432914734 103.88280899822712 C25.13699953272939 75.28142776057123, 51.582528878897435 50.805480018407096, 103.63887779414654 -0.7299987524747849" style="stroke: rgb(0, 0, 0); stroke-width: 1px; fill: none;"></path></g><g transform="translate(363 95) rotate(0 40.5 17.5)"><text x="0" y="25" font-family="Virgil" font-size="28px" fill="#ffffff" text-anchor="start">RIOT</text></g><g><g transform="translate(157 112) rotate(0 61.18433244034648 0.12639332413672832)"><path d="M0.12819709181785588 1.0018191397190093 C20.135034110148748 0.6981976568698882, 100.5909586528937 -0.7015328347682952, 120.81169337630271 -0.7490324914455413 M-0.15065763428807255 0.025335280448198327 C20.0465467727681 0.4759349556267262, 102.05906863893071 1.1356031580269337, 122.51932251498103 0.877120649367571" style="stroke: rgb(0, 0, 0); stroke-width: 1px; fill: none;"></path></g><g transform="translate(157 112) rotate(0 61.18433244034648 0.12639332413672832)"><path d="M96.00315502027028 9.170701024517665 C103.25915703628813 6.466720222845819, 115.96817609718036 5.097202444976064, 120.52317234918475 0.7124674971401692 M94.66726280489915 10.317572844609867 C102.20032203768872 7.184631110166833, 110.44156874633329 5.710145691845875, 121.58227057799697 0.4430704917013646" style="stroke: rgb(0, 0, 0); stroke-width: 1px; fill: none;"></path></g><g transform="translate(157 112) rotate(0 61.18433244034648 0.12639332413672832)"><path d="M95.99333634860315 -11.350505226078969 C103.43635641500342 -6.58020930798917, 116.14895165807306 -0.4754398767210022, 120.52317234918475 0.7124674971401692 M94.65744413323202 -10.203633405986768 C102.25169821357913 -7.151849915549865, 110.4959041171009 -2.4415630480090904, 121.58227057799697 0.4430704917013646" style="stroke: rgb(0, 0, 0); stroke-width: 1px; fill: none;"></path></g></g><g><g transform="translate(527 111) rotate(0 45.32491275265812 -0.3915690456300993)"><path d="M0.7277171194553376 -1.166926771402359 C16.05032447775205 -1.3204677641391753, 75.9217447022597 -0.5281438887119293, 91.27781763672829 -0.4648574888706207 M-1.5806512574851515 0.4031499342620375 C13.825494275440773 0.30083646818995496, 76.50046419496337 -1.2595115895569327, 92.2304767628014 -1.0561828131973745" style="stroke: rgb(0, 0, 0); stroke-width: 1px; fill: none;"></path></g><g transform="translate(527 111) rotate(0 45.32491275265812 -0.3915690456300993)"><path d="M62.18294651929281 8.239748201118676 C70.20336951484443 8.138924220833838, 76.55635791603821 3.898800516611593, 91.7470865805447 -2.7836705262959005 M64.56466826919458 10.330337709532945 C73.23589767453339 6.686128708499417, 82.16832119376554 2.667643599623924, 92.66108686819672 -1.07578527584672" style="stroke: rgb(0, 0, 0); stroke-width: 1px; fill: none;"></path></g><g transform="translate(527 111) rotate(0 45.32491275265812 -0.3915690456300993)"><path d="M62.008725784329016 -12.280720836438636 C70.14990862730008 -7.351369683315223, 76.54561266410111 -6.560261725700906, 91.7470865805447 -2.7836705262959005 M64.39044753423079 -10.190131328024368 C73.14362546636158 -7.2251271239046595, 82.13215329776854 -4.635404540992882, 92.66108686819672 -1.07578527584672" style="stroke: rgb(0, 0, 0); stroke-width: 1px; fill: none;"></path></g></g><g transform="translate(10 60.5) rotate(0 33 12.5)"><text x="0" y="18" font-family="Virgil" font-size="20px" fill="#000000" text-anchor="start">Record</text></g><g transform="translate(31 95.5) rotate(0 32 12.5)"><text x="0" y="18" font-family="Virgil" font-size="20px" fill="#000000" text-anchor="start">id: 123</text></g><g transform="translate(30 126.5) rotate(0 50 12.5)"><text x="0" y="18" font-family="Virgil" font-size="20px" fill="#000000" text-anchor="start">first: Tom</text></g><g transform="translate(29.5 162.5) rotate(0 54.5 12.5)"><text x="0" y="18" font-family="Virgil" font-size="20px" fill="#000000" text-anchor="start">last: Hanks</text></g><g transform="translate(642 95.5) rotate(0 209 12.5)"><text x="0" y="18" font-family="Virgil" font-size="20px" fill="#000000" text-anchor="start">HMSET actor:123 first "Tom" last "Hanks"</text></g><g transform="translate(327 221.5) rotate(0 80 12.5)"><text x="0" y="18" font-family="Virgil" font-size="20px" fill="#000000" text-anchor="start">keyspace: actor</text></g><g transform="translate(329 256.5) rotate(0 37 12.5)"><text x="0" y="18" font-family="Virgil" font-size="20px" fill="#000000" text-anchor="start">keys: id</text></g><g transform="translate(330 291.5) rotate(0 75 12.5)"><text x="0" y="18" font-family="Virgil" font-size="20px" fill="#000000" text-anchor="start">command: hmset</text></g></svg>