<?xml version="1.0" encoding="UTF-8" standalone="no"?>
<svg
   xmlns:dc="http://purl.org/dc/elements/1.1/"
   xmlns:cc="http://creativecommons.org/ns#"
   xmlns:rdf="http://www.w3.org/1999/02/22-rdf-syntax-ns#"
   xmlns:svg="http://www.w3.org/2000/svg"
   xmlns="http://www.w3.org/2000/svg"
   xmlns:sodipodi="http://sodipodi.sourceforge.net/DTD/sodipodi-0.dtd"
   xmlns:inkscape="http://www.inkscape.org/namespaces/inkscape"
   width="200mm"
   height="28.726189mm"
   viewBox="0 0 200 28.726189"
   version="1.1"
   id="svg8"
   inkscape:version="1.0.1 (c497b03c, 2020-09-10)"
   sodipodi:docname="riot.svg">
  <defs
     id="defs2" />
  <sodipodi:namedview
     id="base"
     pagecolor="#ffffff"
     bordercolor="#666666"
     borderopacity="1.0"
     inkscape:pageopacity="0.0"
     inkscape:pageshadow="2"
     inkscape:zoom="0.7"
     inkscape:cx="320"
     inkscape:cy="457.14285"
     inkscape:document-units="mm"
     inkscape:current-layer="layer1"
     inkscape:document-rotation="0"
     showgrid="false"
     inkscape:window-width="1792"
     inkscape:window-height="1075"
     inkscape:window-x="0"
     inkscape:window-y="23"
     inkscape:window-maximized="0"
     fit-margin-top="0"
     fit-margin-left="0"
     fit-margin-right="0"
     fit-margin-bottom="0" />
  <metadata
     id="metadata5">
    <rdf:RDF>
      <cc:Work
         rdf:about="">
        <dc:format>image/svg+xml</dc:format>
        <dc:type
           rdf:resource="http://purl.org/dc/dcmitype/StillImage" />
        <dc:title />
      </cc:Work>
    </rdf:RDF>
  </metadata>
  <g
     inkscape:label="Layer 1"
     inkscape:groupmode="layer"
     id="layer1"
     transform="translate(-12.095239,-15.875)">
    <rect
       style="fill:#5d594f;fill-opacity:1;stroke-width:0.264583"
       id="rect855"
       width="199.49179"
       height="28.726189"
       x="12.095239"
       y="15.875"
       ry="14.363094"
       rx="13.610065" />
    <g
       id="g1219"
       transform="matrix(1.1714448,0,0,1.1714448,-26.659919,-5.6699645)"
       style="stroke-width:0.853646">
      <path
         d="m 43.946042,27.209912 v 8.3432 h 3.122086 v -3.457225 c 0,-1.287639 0.08819,-1.746251 0.388055,-2.151945 0.299862,-0.388056 0.881945,-0.599723 1.587501,-0.599723 1.28764,0 1.640418,0.335139 1.640418,1.569862 h 2.945697 v -0.564445 c 0,-2.504724 -0.846668,-3.351391 -3.36903,-3.351391 -1.746252,0 -2.628197,0.405695 -3.21028,1.464029 h -0.15875 v -1.252362 z"
         style="font-size:17.6389px;line-height:1.25;font-family:'Microgramma D Extended';-inkscape-font-specification:'Microgramma D Extended';fill:#ffffff;stroke-width:0.225861"
         id="path1108" />
      <path
         d="m 54.522493,27.209912 v 8.3432 h 3.122085 v -8.3432 z m 0,-3.421947 v 2.345974 h 3.122085 v -2.345974 z"
         style="font-size:17.6389px;line-height:1.25;font-family:'Microgramma D Extended';-inkscape-font-specification:'Microgramma D Extended';fill:#ffffff;stroke-width:0.225861"
         id="path1110" />
      <path
         d="m 64.749748,26.998245 c -2.839863,0 -4.056947,0.194028 -4.833059,0.758473 -0.829028,0.599723 -1.075973,1.393473 -1.075973,3.351391 0,2.416529 0.194028,3.192641 0.97014,3.827642 0.79375,0.652639 1.834445,0.829028 4.956531,0.829028 3.086807,0 4.127502,-0.176389 4.921253,-0.829028 0.758473,-0.635001 0.97014,-1.411113 0.97014,-3.70417 0,-2.099029 -0.229306,-2.857502 -1.075973,-3.474863 -0.776112,-0.564445 -1.975557,-0.758473 -4.833059,-0.758473 z m 0.01764,2.345974 c 0.881945,0 1.622779,0.08819 2.010834,0.246945 0.582084,0.229305 0.758473,0.635 0.758473,1.76389 0,1.76389 -0.405695,2.063751 -2.769307,2.063751 -1.005418,0 -1.710974,-0.08819 -2.09903,-0.264583 -0.564444,-0.229306 -0.705556,-0.599723 -0.705556,-1.710974 0,-1.781529 0.423334,-2.099029 2.804586,-2.099029 z"
         style="font-size:17.6389px;line-height:1.25;font-family:'Microgramma D Extended';-inkscape-font-specification:'Microgramma D Extended';fill:#ffffff;stroke-width:0.225861"
         id="path1112" />
      <path
         d="m 72.958451,25.287272 v 1.92264 h -1.640418 v 2.24014 h 1.640418 v 2.434169 c 0,0.687917 0,1.11125 0.01764,1.252362 0.03528,0.9525 0.211667,1.411112 0.652639,1.852084 0.617362,0.599723 1.428751,0.776112 3.421947,0.776112 2.151946,0 3.104446,-0.264584 3.739447,-1.058334 0.47625,-0.617362 0.599723,-1.12889 0.635,-2.716391 h -2.857502 c 0,0.864306 -0.01764,0.934862 -0.123472,1.12889 -0.141111,0.299861 -0.493889,0.423333 -1.12889,0.423333 -0.599722,0 -0.917222,-0.123472 -1.075972,-0.405694 -0.141112,-0.211667 -0.158751,-0.335139 -0.158751,-1.252362 v -2.434169 h 4.938893 v -2.24014 h -4.938893 v -1.92264 z"
         style="font-size:17.6389px;line-height:1.25;font-family:'Microgramma D Extended';-inkscape-font-specification:'Microgramma D Extended';fill:#ffffff;stroke-width:0.225861"
         id="path1114" />
    </g>
    <g
       id="g41"
       transform="matrix(1.5578101,0,0,1,-32.901075,-0.04479408)"
       style="stroke-width:0.801202">
      <rect
         style="fill:#d12625;fill-opacity:1;stroke-width:0.211984"
         id="rect857"
         width="62.298889"
         height="3"
         x="69.661972"
         y="19.516808" />
      <rect
         style="fill:#da6241;fill-opacity:1;stroke-width:0.211984"
         id="rect857-5"
         width="62.298897"
         height="3"
         x="69.661972"
         y="24.149849" />
      <rect
         style="fill:#f1cb29;fill-opacity:1;stroke-width:0.211984"
         id="rect857-5-1"
         width="62.298901"
         height="3"
         x="69.661964"
         y="28.782888" />
      <rect
         style="fill:#4bb249;fill-opacity:1;stroke-width:0.211984"
         id="rect857-5-1-1"
         width="62.298908"
         height="3"
         x="69.661964"
         y="33.415928" />
      <rect
         style="fill:#009eda;fill-opacity:1;stroke-width:0.211984"
         id="rect857-5-1-1-8"
         width="62.298908"
         height="3"
         x="69.661964"
         y="38.048969" />
    </g>
    <g
       id="g1081"
       transform="matrix(1.2717148,0,0,1.2717148,157.58677,-7.8575246)"
       style="stroke-width:0.786341">
      <g
         id="g1052"
         transform="matrix(0.03809932,0,0,0.03809932,18.021018,20.969704)"
         style="fill:#ffffff;stroke-width:5.4608">
        <path
           class="st0"
           d="m 228.4,50.4 c 0,0.2 2.4,4.7 5.4,10.3 3,5.5 5.1,10.2 4.8,10.5 -0.3,0.2 -8.7,3.4 -18.6,6.9 -10,3.6 -17.9,6.6 -17.8,6.7 0.1,0.1 11.4,1.3 25,2.6 16.4,1.5 25,2.6 25.6,3.3 0.5,0.5 4.3,6.6 8.4,13.4 l 7.4,12.4 1.3,-3.1 c 0.7,-1.6 3,-7.1 5,-12 l 3.7,-8.9 19.7,-2.1 c 10.8,-1.2 20.4,-2.1 21.4,-2.1 l 1.7,-0.7 c 0,-0.3 -7.3,-3.3 -16.3,-6.7 -8.9,-3.3 -16.3,-6.2 -16.3,-6.3 0,-0.1 1.9,-4.8 4.3,-10.5 2.3,-5.7 4.1,-10.5 4,-10.6 -0.2,-0.2 -7.8,2.1 -16.8,5 L 264,63.9 246.5,57 C 229.3,50.2 228.4,49.9 228.4,50.4 Z M 337,109.5 c -20.9,8.3 -38.1,15.2 -38.2,15.4 -0.2,0.2 15.4,6.5 34.6,14.1 l 34.8,13.7 3.7,-1.5 c 38.8,-15.1 74,-29.1 73.9,-29.3 L 375.9,94.4 c -0.7,0.1 -18.1,6.8 -38.9,15.1 z m -200.6,-8.1 c -20.1,2.1 -36.9,7.9 -44,15.3 -4.9,5 -5.7,9.3 -2.6,14.5 4.5,7.8 19.3,14.3 39.7,17.6 9.2,1.6 36.1,1.3 45.4,-0.3 21.8,-3.8 36,-10.8 39.3,-19.6 1.2,-3.3 1.2,-3.7 0,-6.9 -3.3,-8.5 -17.2,-15.6 -37.8,-19.2 -10.4,-1.7 -29.8,-2.4 -40,-1.4 z m 373.3,24.2 c -1,1.3 -4.7,4.3 -8.3,6.7 -10.6,6.8 -24.2,13 -109.1,49.6 -59.7,25.6 -74.9,32.4 -95.5,42.3 -22.9,10.9 -32.4,14 -43.9,14 -10.3,0 -16.5,-1.8 -35.7,-10.3 C 209.5,224.5 178,211.3 147.3,198.5 12.8,142.6 10.3,141.4 3.1,133.6 l -3,-3.3 V 183 l 3.4,3.3 c 3.3,3.2 14.4,9.9 18.3,11 1.1,0.3 8.4,3.3 16.3,6.7 7.9,3.4 46.5,19.6 85.8,36 65,27.1 79.8,33.3 102,43 11.7,5.2 18.2,6.5 29.3,6.1 8.1,-0.3 10.5,-0.8 17.6,-3.2 4.6,-1.5 12.5,-4.9 17.6,-7.5 16.9,-8.5 37.3,-17.5 118.6,-52.5 76.5,-33 86.5,-37.6 94.8,-43.3 8.5,-6.1 8.2,-4.6 8.2,-34 0,-14.1 -0.1,-25.6 -0.2,-25.6 z M 241.9,160 c -31.3,4.8 -57.2,8.9 -57.7,9.1 -0.7,0.2 78,33.3 81.3,34.2 l 36,-51.7 c -0.1,-0.7 0,-0.8 -59.6,8.4 z m 268.3,52.4 c -0.7,1.2 -4,4 -7.1,6.3 -10.2,7 -25.5,14 -118.5,54 -53.5,23.1 -70.3,30.5 -86.2,38.2 -25.8,12.5 -32,14.5 -45.8,14.5 -10.7,-0.1 -17.3,-1.8 -31.5,-8.2 -13.7,-6.3 -29,-12.7 -90.4,-38.2 C 23.6,234.6 11.3,229 3.7,221.7 L 0,218.2 v 52 l 4.2,4 c 6.8,6.4 6.1,6 120.9,53.8 42.1,17.5 81.8,34.2 88.2,37.1 16.9,7.6 21.8,9.4 28.5,10.8 15.6,3.2 27.2,0.6 52.5,-11.7 16.5,-8 36.6,-16.9 85.3,-37.9 92.6,-39.9 115.4,-50.2 122.2,-54.7 2.4,-1.7 5.7,-4.4 7.3,-6.2 l 2.9,-3.2 v -26 c 0,-14.3 -0.1,-26 -0.2,-26 z m -0.9,85.2 c -6.1,7.7 -18.4,13.6 -113.9,54.7 -62.3,26.9 -81.3,35.3 -101.8,45 -21.5,10.2 -28.6,12.4 -41,12.4 -8.5,0 -17.1,-2 -26.6,-6.2 -22.3,-9.8 -37,-16 -102.1,-43.1 C 49.9,329.6 26.2,319.5 18.3,315.6 10.9,311.9 3.4,306.6 1.7,303.9 L 0,301.4 v 26.5 c 0,30.4 -0.5,28.1 7.6,33.6 9,6 22.4,12 111.3,48.9 62.1,25.8 84.5,35.2 95.5,40.2 22.5,10.1 28.5,11.7 41.1,11 11.5,-0.5 19,-3 38.9,-12.5 20.7,-9.9 36,-16.8 103.7,-45.9 94,-40.5 104.2,-45.4 111.3,-53.6 l 2.5,-2.8 v -25.9 c 0,-14.3 -0.1,-26 -0.2,-26 z"
           id="path1050"
           style="fill:#ffffff;stroke-width:5.4608" />
      </g>
    </g>
  </g>
</svg>
